<svg xmlns="http://www.w3.org/2000/svg" viewBox="0 0 655.76 135.95"><defs><style>.cls-1,.cls-3{fill:#c2c2c2;}.cls-2{fill:#a2a2a2;}.cls-2,.cls-3{fill-rule:evenodd;}</style></defs><g id="Layer_2" data-name="Layer 2"><g id="Слой_1" data-name="Слой 1"><path class="cls-1" d="M186.88,43.34h30.48c12.83,0,22.28,10.12,22.28,23.82,0,8.58-4,15.82-10.32,19.77l12,25.85H228.74L218.61,90.89a15.17,15.17,0,0,1-2,.09H198.26v21.8H186.88ZM198.26,79.6h17.56c7.61,0,12.53-4.92,12.53-12.44s-4.82-12.44-12.44-12.44H198.26Z"/><path class="cls-1" d="M294.43,88.67a25.08,25.08,0,1,1-25.08-25.08A25.09,25.09,0,0,1,294.43,88.67Zm-25.08,13.69a13.7,13.7,0,1,0-13.69-13.69A13.75,13.75,0,0,0,269.35,102.36Z"/><path class="cls-1" d="M300.61,88.67a25.09,25.09,0,0,1,25.07-25.08,24.81,24.81,0,0,1,18.13,7.81l-8,8A13.92,13.92,0,0,0,325.68,75a13.7,13.7,0,1,0,10.13,22.86l8,8.1a24.81,24.81,0,0,1-18.13,7.81A25.14,25.14,0,0,1,300.61,88.67Z"/><path class="cls-1" d="M351.34,112.78V43.34h11.38v41l16.59-19.77h14.37L374.1,87.8l20.74,25H380.57L362.72,91.27v21.51Z"/><path class="cls-1" d="M419.73,63.59c13.69,0,23,10,23,24.4,0,1.83-.29,3.86-.48,5.79H406.42c1.93,6,7.33,9.64,14.47,9.64a16.08,16.08,0,0,0,12-4.82l7.23,7.23c-4.63,5.12-11.38,7.91-19.29,7.91-14.56,0-25.65-10.9-25.65-25.07S405.75,63.59,419.73,63.59Zm-13.5,21.32h25.84c-1-6.85-6.07-11.1-12.53-11.1C412.88,73.81,407.19,78.25,406.23,84.91Z"/><path class="cls-1" d="M451.27,64.56a4,4,0,0,0,4.25-4.15V51.63H466.9V64.56h12.25V75.94H466.9V93.2c0,7.62,1.15,9.55,5.78,9.55a32,32,0,0,0,6.47-.77v10.8a35,35,0,0,1-8,1c-11,0-15.62-5-15.62-17.16V75.94h-8.88V64.56Z"/><path class="cls-1" d="M489.37,43.34h26.72c19.48,0,33.56,14.47,33.56,34.72s-14,34.72-33.56,34.72H489.37Zm11.38,58.06h15.34c13.21,0,22.18-9.45,22.18-23.34s-9-23.34-22.18-23.34H500.75Z"/><path class="cls-1" d="M606.37,88.67a25.08,25.08,0,1,1-25.08-25.08A25.09,25.09,0,0,1,606.37,88.67Zm-25.08,13.69A13.7,13.7,0,1,0,567.6,88.67,13.74,13.74,0,0,0,581.29,102.36Z"/><path class="cls-1" d="M612.55,88.67A25,25,0,0,1,655.76,71.4l-8,8A13.91,13.91,0,0,0,637.63,75a13.7,13.7,0,1,0,10.12,22.86l8,8.1a24.84,24.84,0,0,1-18.13,7.81A25.14,25.14,0,0,1,612.55,88.67Z"/><path class="cls-2" d="M157.36,3.29C102.81,99.81,46.62,20.71,3,105.69c32.71-63.75,143.8,46.85,154.11-89.33C157.38,13.1,157.36,3.29,157.36,3.29Z"/><path class="cls-3" d="M157.56,3.47C57.23,46.4,119.73,109,28.1,135.94,96.84,115.73,9-14.08,144.68,1.26,147.93,1.62,157.56,3.47,157.56,3.47Z"/><path class="cls-3" d="M29.52,127,0,136l11.44-28.66A13.89,13.89,0,1,1,29.52,127Z"/></g></g></svg>